# xmcd
#
# Track frame offsets:
#	150
#	13040
#	27912
#	44192
#	97552
#	111875
#	126445
#
# Disc length: 1887 seconds
#
# Revision: 1
# Processed by: cddbd v1.4PL0 Copyright (c) Steve Scherf et al.
# Submitted via: EasyCDDAExtractor 5.0.6
#
DISCID=56075d07
DTITLE=Water Street Blues Band
DYEAR=1900
DGENRE=Blues
TTITLE0=Gospel Train
TTITLE1=California
TTITLE2=Mayfield Ferry
TTITLE3=New Orleans Song
TTITLE4=Thursday Can Be So Bad
TTITLE5=Something'S Cookin' In The Kitchen
TTITLE6=Ain'T You Been Good To Me
EXTD=
EXTT0=
EXTT1=
EXTT2=
EXTT3=
EXTT4=
EXTT5=
EXTT6=
PLAYORDER=
